solid OpenSCAD_Model
  facet normal 0 0 0
    outer loop
      vertex -1.06233 0.254333 0
      vertex -0.869827 0.502518 0
      vertex -0.714371 -0.163605 0
    endloop
  endfacet
  facet normal 0 0 0
    outer loop
      vertex -0.533371 1.03268 0
      vertex 0.390762 1.31256 0
      vertex 0.533371 1.03268 0
    endloop
  endfacet
  facet normal 0 0 0
    outer loop
      vertex -0.869827 0.502518 0
      vertex -0.503769 -0.119995 0
      vertex -0.714371 -0.163605 0
    endloop
  endfacet
  facet normal 0 0 0
    outer loop
      vertex -1.33485 -0.261887 0
      vertex -1.49217 -0.203384 0
      vertex -1.27007 0.0187225 0
    endloop
  endfacet
  facet normal 0 0 0
    outer loop
      vertex -0.266022 1.60083 0
      vertex -0.159622 1.89636 0
      vertex 0.159622 1.89636 0
    endloop
  endfacet
  facet normal 0 0 0
    outer loop
      vertex 0.266022 1.60083 0
      vertex -0.266022 1.60083 0
      vertex 0.159622 1.89636 0
    endloop
  endfacet
  facet normal 0 0 0
    outer loop
      vertex 1.33485 -0.261887 0
      vertex 1.02383 -0.217621 0
      vertex 1.27007 0.0187225 0
    endloop
  endfacet
  facet normal 0 0 0
    outer loop
      vertex 0 0.00114441 0
      vertex -0.00418091 0 0
      vertex -0.693268 0.762314 0
    endloop
  endfacet
  facet normal 0 0 0
    outer loop
      vertex 1.59055 -0.290115 0
      vertex 1.33485 -0.261887 0
      vertex 1.49217 -0.203384 0
    endloop
  endfacet
  facet normal 0 0 0
    outer loop
      vertex 1.49217 -0.203384 0
      vertex 1.33485 -0.261887 0
      vertex 1.27007 0.0187225 0
    endloop
  endfacet
  facet normal 0 0 0
    outer loop
      vertex 1.27007 0.0187225 0
      vertex 1.02383 -0.217621 0
      vertex 1.06233 0.254333 0
    endloop
  endfacet
  facet normal 0 0 0
    outer loop
      vertex 0.266022 1.60083 0
      vertex 0.390762 1.31256 0
      vertex -0.390762 1.31256 0
    endloop
  endfacet
  facet normal 0 0 0
    outer loop
      vertex 1.06233 0.254333 0
      vertex 1.02383 -0.217621 0
      vertex 0.714371 -0.163605 0
    endloop
  endfacet
  facet normal 0 0 0
    outer loop
      vertex 0.869827 0.502518 0
      vertex 1.06233 0.254333 0
      vertex 0.714371 -0.163605 0
    endloop
  endfacet
  facet normal 0 0 0
    outer loop
      vertex 0.503769 -0.119995 0
      vertex 0.869827 0.502518 0
      vertex 0.714371 -0.163605 0
    endloop
  endfacet
  facet normal 0 0 0
    outer loop
      vertex 0.503769 -0.119995 0
      vertex 0.693268 0.762314 0
      vertex 0.869827 0.502518 0
    endloop
  endfacet
  facet normal 0 0 0
    outer loop
      vertex -0.000549316 2.52295 0
      vertex 0.000549316 2.52295 0
      vertex -0.00346375 2.50455 0
    endloop
  endfacet
  facet normal 0 0 0
    outer loop
      vertex 0.159622 1.89636 0
      vertex -0.159622 1.89636 0
      vertex 0.071991 2.198 0
    endloop
  endfacet
  facet normal 0 0 0
    outer loop
      vertex 0.071991 2.198 0
      vertex -0.159622 1.89636 0
      vertex -0.071991 2.198 0
    endloop
  endfacet
  facet normal 0 0 0
    outer loop
      vertex 0.00346375 2.50455 0
      vertex -0.071991 2.198 0
      vertex -0.00346375 2.50455 0
    endloop
  endfacet
  facet normal 0 0 0
    outer loop
      vertex 0.00346375 2.50455 0
      vertex 0.071991 2.198 0
      vertex -0.071991 2.198 0
    endloop
  endfacet
  facet normal 0 0 0
    outer loop
      vertex -0.00346375 2.50455 0
      vertex 0.000549316 2.52295 0
      vertex 0.00346375 2.50455 0
    endloop
  endfacet
  facet normal 0 0 0
    outer loop
      vertex -0.390762 1.31256 0
      vertex -0.266022 1.60083 0
      vertex 0.266022 1.60083 0
    endloop
  endfacet
  facet normal 0 0 0
    outer loop
      vertex -0.533371 1.03268 0
      vertex -0.390762 1.31256 0
      vertex 0.390762 1.31256 0
    endloop
  endfacet
  facet normal 0 0 0
    outer loop
      vertex -0.533371 1.03268 0
      vertex 0.533371 1.03268 0
      vertex 0 0.00114441 0
    endloop
  endfacet
  facet normal 0 0 0
    outer loop
      vertex 0 0.00114441 0
      vertex 0.533371 1.03268 0
      vertex 0.693268 0.762314 0
    endloop
  endfacet
  facet normal 0 0 0
    outer loop
      vertex -1.06233 0.254333 0
      vertex -0.714371 -0.163605 0
      vertex -1.02383 -0.217621 0
    endloop
  endfacet
  facet normal 0 0 0
    outer loop
      vertex -1.27007 0.0187225 0
      vertex -1.02383 -0.217621 0
      vertex -1.33485 -0.261887 0
    endloop
  endfacet
  facet normal 0 0 0
    outer loop
      vertex 0.51973 -0.627899 0
      vertex -0.51973 -0.627899 0
      vertex 0.00418091 0 0
    endloop
  endfacet
  facet normal 0 0 0
    outer loop
      vertex -0.677124 -1.87381 0
      vertex -0.578842 -1.25333 0
      vertex 0.578842 -1.25333 0
    endloop
  endfacet
  facet normal 0 0 0
    outer loop
      vertex 0.677124 -1.87381 0
      vertex -0.677124 -1.87381 0
      vertex 0.578842 -1.25333 0
    endloop
  endfacet
  facet normal 0 0 0
    outer loop
      vertex 0.677124 -1.87381 0
      vertex 0.814163 -2.48689 0
      vertex -0.814163 -2.48689 0
    endloop
  endfacet
  facet normal 0 0 0
    outer loop
      vertex -1.49217 -0.203384 0
      vertex -1.33485 -0.261887 0
      vertex -1.59055 -0.290115 0
    endloop
  endfacet
  facet normal 0 0 0
    outer loop
      vertex 0.503769 -0.119995 0
      vertex 0.51973 -0.627899 0
      vertex 0.00418091 0 0
    endloop
  endfacet
  facet normal 0 0 0
    outer loop
      vertex -1.06233 0.254333 0
      vertex -1.02383 -0.217621 0
      vertex -1.27007 0.0187225 0
    endloop
  endfacet
  facet normal 0 0 0
    outer loop
      vertex -0.869827 0.502518 0
      vertex -0.693268 0.762314 0
      vertex -0.503769 -0.119995 0
    endloop
  endfacet
  facet normal 0 0 0
    outer loop
      vertex -0.503769 -0.119995 0
      vertex -0.693268 0.762314 0
      vertex -0.00418091 0 0
    endloop
  endfacet
  facet normal 0 0 0
    outer loop
      vertex -0.578842 -1.25333 0
      vertex 0.51973 -0.627899 0
      vertex 0.578842 -1.25333 0
    endloop
  endfacet
  facet normal 0 0 0
    outer loop
      vertex -0.51973 -0.627899 0
      vertex 0.51973 -0.627899 0
      vertex -0.578842 -1.25333 0
    endloop
  endfacet
  facet normal 0 0 0
    outer loop
      vertex 0.677124 -1.87381 0
      vertex -0.814163 -2.48689 0
      vertex -0.677124 -1.87381 0
    endloop
  endfacet
  facet normal 0 0 0
    outer loop
      vertex -0.409821 -3.44838 0
      vertex -0.710083 -3.54076 0
      vertex -0.989426 -3.09016 0
    endloop
  endfacet
  facet normal 0 0 0
    outer loop
      vertex -0.814163 -2.48689 0
      vertex -0.409821 -3.44838 0
      vertex -0.989426 -3.09016 0
    endloop
  endfacet
  facet normal 0 0 0
    outer loop
      vertex -1.19742 -3.66789 0
      vertex -0.989426 -3.09016 0
      vertex -1.01309 -3.62364 0
    endloop
  endfacet
  facet normal 0 0 0
    outer loop
      vertex 0.11261 -3.34662 0
      vertex 0.814163 -2.48689 0
      vertex 0.409821 -3.44838 0
    endloop
  endfacet
  facet normal 0 0 0
    outer loop
      vertex -1.01309 -3.62364 0
      vertex -0.989426 -3.09016 0
      vertex -0.710083 -3.54076 0
    endloop
  endfacet
  facet normal 0 0 0
    outer loop
      vertex -0.814163 -2.48689 0
      vertex -0.11261 -3.34662 0
      vertex -0.409821 -3.44838 0
    endloop
  endfacet
  facet normal 0 0 0
    outer loop
      vertex -0.814163 -2.48689 0
      vertex 0 -3.30406 0
      vertex -0.11261 -3.34662 0
    endloop
  endfacet
  facet normal 0 0 0
    outer loop
      vertex -0.814163 -2.48689 0
      vertex 0.814163 -2.48689 0
      vertex 0 -3.30406 0
    endloop
  endfacet
  facet normal 0 0 0
    outer loop
      vertex 0 -3.30406 0
      vertex 0.814163 -2.48689 0
      vertex 0.11261 -3.34662 0
    endloop
  endfacet
  facet normal 0 0 0
    outer loop
      vertex 0.814163 -2.48689 0
      vertex 0.989426 -3.09016 0
      vertex 0.409821 -3.44838 0
    endloop
  endfacet
  facet normal 0 0 0
    outer loop
      vertex 0.409821 -3.44838 0
      vertex 0.989426 -3.09016 0
      vertex 0.710083 -3.54076 0
    endloop
  endfacet
  facet normal 0 0 0
    outer loop
      vertex 0.710083 -3.54076 0
      vertex 0.989426 -3.09016 0
      vertex 1.01309 -3.62364 0
    endloop
  endfacet
  facet normal 0 0 0
    outer loop
      vertex 1.01309 -3.62364 0
      vertex 0.989426 -3.09016 0
      vertex 1.19742 -3.66789 0
    endloop
  endfacet
  facet normal 0 0 0
    outer loop
      vertex -0.00418091 0 0
      vertex 0.00418091 0 0
      vertex -0.51973 -0.627899 0
    endloop
  endfacet
  facet normal 0 0 0
    outer loop
      vertex 0.00418091 0 0
      vertex 0.693268 0.762314 0
      vertex 0.503769 -0.119995 0
    endloop
  endfacet
  facet normal 0 0 0
    outer loop
      vertex -0.503769 -0.119995 0
      vertex -0.00418091 0 0
      vertex -0.51973 -0.627899 0
    endloop
  endfacet
  facet normal 0 0 0
    outer loop
      vertex -0.693268 0.762314 0
      vertex -0.533371 1.03268 0
      vertex 0 0.00114441 0
    endloop
  endfacet
  facet normal 0 0 0
    outer loop
      vertex 0 0.00114441 0
      vertex 0.693268 0.762314 0
      vertex 0.00418091 0 0
    endloop
  endfacet
  facet normal 0 0 0
    outer loop
      vertex -0.714371 -0.163605 1
      vertex -0.869827 0.502518 1
      vertex -1.06233 0.254333 1
    endloop
  endfacet
  facet normal 0 0 0
    outer loop
      vertex 0.533371 1.03268 1
      vertex 0.390762 1.31256 1
      vertex -0.533371 1.03268 1
    endloop
  endfacet
  facet normal 0 0 0
    outer loop
      vertex -0.714371 -0.163605 1
      vertex -0.503769 -0.119995 1
      vertex -0.869827 0.502518 1
    endloop
  endfacet
  facet normal 0 0 0
    outer loop
      vertex -1.27007 0.0187225 1
      vertex -1.49217 -0.203384 1
      vertex -1.33485 -0.261887 1
    endloop
  endfacet
  facet normal 0 0 0
    outer loop
      vertex 0.159622 1.89636 1
      vertex -0.159622 1.89636 1
      vertex -0.266022 1.60083 1
    endloop
  endfacet
  facet normal 0 0 0
    outer loop
      vertex 0.159622 1.89636 1
      vertex -0.266022 1.60083 1
      vertex 0.266022 1.60083 1
    endloop
  endfacet
  facet normal 0 0 0
    outer loop
      vertex 1.27007 0.0187225 1
      vertex 1.02383 -0.217621 1
      vertex 1.33485 -0.261887 1
    endloop
  endfacet
  facet normal 0 0 0
    outer loop
      vertex -0.693268 0.762314 1
      vertex -0.00418091 0 1
      vertex 0 0.00114441 1
    endloop
  endfacet
  facet normal 0 0 0
    outer loop
      vertex 1.49217 -0.203384 1
      vertex 1.33485 -0.261887 1
      vertex 1.59055 -0.290115 1
    endloop
  endfacet
  facet normal 0 0 0
    outer loop
      vertex 1.27007 0.0187225 1
      vertex 1.33485 -0.261887 1
      vertex 1.49217 -0.203384 1
    endloop
  endfacet
  facet normal 0 0 0
    outer loop
      vertex 1.06233 0.254333 1
      vertex 1.02383 -0.217621 1
      vertex 1.27007 0.0187225 1
    endloop
  endfacet
  facet normal 0 0 0
    outer loop
      vertex -0.390762 1.31256 1
      vertex 0.390762 1.31256 1
      vertex 0.266022 1.60083 1
    endloop
  endfacet
  facet normal 0 0 0
    outer loop
      vertex 0.714371 -0.163605 1
      vertex 1.02383 -0.217621 1
      vertex 1.06233 0.254333 1
    endloop
  endfacet
  facet normal 0 0 0
    outer loop
      vertex 0.714371 -0.163605 1
      vertex 1.06233 0.254333 1
      vertex 0.869827 0.502518 1
    endloop
  endfacet
  facet normal 0 0 0
    outer loop
      vertex 0.714371 -0.163605 1
      vertex 0.869827 0.502518 1
      vertex 0.503769 -0.119995 1
    endloop
  endfacet
  facet normal 0 0 0
    outer loop
      vertex 0.869827 0.502518 1
      vertex 0.693268 0.762314 1
      vertex 0.503769 -0.119995 1
    endloop
  endfacet
  facet normal 0 0 0
    outer loop
      vertex -0.00346375 2.50455 1
      vertex 0.000549316 2.52295 1
      vertex -0.000549316 2.52295 1
    endloop
  endfacet
  facet normal 0 0 0
    outer loop
      vertex 0.071991 2.198 1
      vertex -0.159622 1.89636 1
      vertex 0.159622 1.89636 1
    endloop
  endfacet
  facet normal 0 0 0
    outer loop
      vertex -0.071991 2.198 1
      vertex -0.159622 1.89636 1
      vertex 0.071991 2.198 1
    endloop
  endfacet
  facet normal 0 0 0
    outer loop
      vertex -0.00346375 2.50455 1
      vertex -0.071991 2.198 1
      vertex 0.00346375 2.50455 1
    endloop
  endfacet
  facet normal 0 0 0
    outer loop
      vertex -0.071991 2.198 1
      vertex 0.071991 2.198 1
      vertex 0.00346375 2.50455 1
    endloop
  endfacet
  facet normal 0 0 0
    outer loop
      vertex 0.00346375 2.50455 1
      vertex 0.000549316 2.52295 1
      vertex -0.00346375 2.50455 1
    endloop
  endfacet
  facet normal 0 0 0
    outer loop
      vertex 0.266022 1.60083 1
      vertex -0.266022 1.60083 1
      vertex -0.390762 1.31256 1
    endloop
  endfacet
  facet normal 0 0 0
    outer loop
      vertex 0.390762 1.31256 1
      vertex -0.390762 1.31256 1
      vertex -0.533371 1.03268 1
    endloop
  endfacet
  facet normal 0 0 0
    outer loop
      vertex 0 0.00114441 1
      vertex 0.533371 1.03268 1
      vertex -0.533371 1.03268 1
    endloop
  endfacet
  facet normal 0 0 0
    outer loop
      vertex 0.693268 0.762314 1
      vertex 0.533371 1.03268 1
      vertex 0 0.00114441 1
    endloop
  endfacet
  facet normal 0 0 0
    outer loop
      vertex -1.02383 -0.217621 1
      vertex -0.714371 -0.163605 1
      vertex -1.06233 0.254333 1
    endloop
  endfacet
  facet normal 0 0 0
    outer loop
      vertex -1.33485 -0.261887 1
      vertex -1.02383 -0.217621 1
      vertex -1.27007 0.0187225 1
    endloop
  endfacet
  facet normal 0 0 0
    outer loop
      vertex 0.00418091 0 1
      vertex -0.51973 -0.627899 1
      vertex 0.51973 -0.627899 1
    endloop
  endfacet
  facet normal 0 0 0
    outer loop
      vertex 0.578842 -1.25333 1
      vertex -0.578842 -1.25333 1
      vertex -0.677124 -1.87381 1
    endloop
  endfacet
  facet normal 0 0 0
    outer loop
      vertex 0.578842 -1.25333 1
      vertex -0.677124 -1.87381 1
      vertex 0.677124 -1.87381 1
    endloop
  endfacet
  facet normal 0 0 0
    outer loop
      vertex -0.814163 -2.48689 1
      vertex 0.814163 -2.48689 1
      vertex 0.677124 -1.87381 1
    endloop
  endfacet
  facet normal 0 0 0
    outer loop
      vertex -1.59055 -0.290115 1
      vertex -1.33485 -0.261887 1
      vertex -1.49217 -0.203384 1
    endloop
  endfacet
  facet normal 0 0 0
    outer loop
      vertex 0.00418091 0 1
      vertex 0.51973 -0.627899 1
      vertex 0.503769 -0.119995 1
    endloop
  endfacet
  facet normal 0 0 0
    outer loop
      vertex -1.27007 0.0187225 1
      vertex -1.02383 -0.217621 1
      vertex -1.06233 0.254333 1
    endloop
  endfacet
  facet normal 0 0 0
    outer loop
      vertex -0.503769 -0.119995 1
      vertex -0.693268 0.762314 1
      vertex -0.869827 0.502518 1
    endloop
  endfacet
  facet normal 0 0 0
    outer loop
      vertex -0.00418091 0 1
      vertex -0.693268 0.762314 1
      vertex -0.503769 -0.119995 1
    endloop
  endfacet
  facet normal 0 0 0
    outer loop
      vertex 0.578842 -1.25333 1
      vertex 0.51973 -0.627899 1
      vertex -0.578842 -1.25333 1
    endloop
  endfacet
  facet normal 0 0 0
    outer loop
      vertex -0.578842 -1.25333 1
      vertex 0.51973 -0.627899 1
      vertex -0.51973 -0.627899 1
    endloop
  endfacet
  facet normal 0 0 0
    outer loop
      vertex -0.677124 -1.87381 1
      vertex -0.814163 -2.48689 1
      vertex 0.677124 -1.87381 1
    endloop
  endfacet
  facet normal 0 0 0
    outer loop
      vertex -0.989426 -3.09016 1
      vertex -0.710083 -3.54076 1
      vertex -0.409821 -3.44838 1
    endloop
  endfacet
  facet normal 0 0 0
    outer loop
      vertex -0.989426 -3.09016 1
      vertex -0.409821 -3.44838 1
      vertex -0.814163 -2.48689 1
    endloop
  endfacet
  facet normal 0 0 0
    outer loop
      vertex -1.01309 -3.62364 1
      vertex -0.989426 -3.09016 1
      vertex -1.19742 -3.66789 1
    endloop
  endfacet
  facet normal 0 0 0
    outer loop
      vertex 0.409821 -3.44838 1
      vertex 0.814163 -2.48689 1
      vertex 0.11261 -3.34662 1
    endloop
  endfacet
  facet normal 0 0 0
    outer loop
      vertex -0.710083 -3.54076 1
      vertex -0.989426 -3.09016 1
      vertex -1.01309 -3.62364 1
    endloop
  endfacet
  facet normal 0 0 0
    outer loop
      vertex -0.409821 -3.44838 1
      vertex -0.11261 -3.34662 1
      vertex -0.814163 -2.48689 1
    endloop
  endfacet
  facet normal 0 0 0
    outer loop
      vertex -0.11261 -3.34662 1
      vertex 0 -3.30406 1
      vertex -0.814163 -2.48689 1
    endloop
  endfacet
  facet normal 0 0 0
    outer loop
      vertex 0 -3.30406 1
      vertex 0.814163 -2.48689 1
      vertex -0.814163 -2.48689 1
    endloop
  endfacet
  facet normal 0 0 0
    outer loop
      vertex 0.11261 -3.34662 1
      vertex 0.814163 -2.48689 1
      vertex 0 -3.30406 1
    endloop
  endfacet
  facet normal 0 0 0
    outer loop
      vertex 0.409821 -3.44838 1
      vertex 0.989426 -3.09016 1
      vertex 0.814163 -2.48689 1
    endloop
  endfacet
  facet normal 0 0 0
    outer loop
      vertex 0.710083 -3.54076 1
      vertex 0.989426 -3.09016 1
      vertex 0.409821 -3.44838 1
    endloop
  endfacet
  facet normal 0 0 0
    outer loop
      vertex 1.01309 -3.62364 1
      vertex 0.989426 -3.09016 1
      vertex 0.710083 -3.54076 1
    endloop
  endfacet
  facet normal 0 0 0
    outer loop
      vertex 1.19742 -3.66789 1
      vertex 0.989426 -3.09016 1
      vertex 1.01309 -3.62364 1
    endloop
  endfacet
  facet normal 0 0 0
    outer loop
      vertex -0.51973 -0.627899 1
      vertex 0.00418091 0 1
      vertex -0.00418091 0 1
    endloop
  endfacet
  facet normal 0 0 0
    outer loop
      vertex 0.503769 -0.119995 1
      vertex 0.693268 0.762314 1
      vertex 0.00418091 0 1
    endloop
  endfacet
  facet normal 0 0 0
    outer loop
      vertex -0.51973 -0.627899 1
      vertex -0.00418091 0 1
      vertex -0.503769 -0.119995 1
    endloop
  endfacet
  facet normal 0 0 0
    outer loop
      vertex 0 0.00114441 1
      vertex -0.533371 1.03268 1
      vertex -0.693268 0.762314 1
    endloop
  endfacet
  facet normal 0 0 0
    outer loop
      vertex 0.00418091 0 1
      vertex 0.693268 0.762314 1
      vertex 0 0.00114441 1
    endloop
  endfacet
  facet normal 0 0 0
    outer loop
      vertex 0.814163 -2.48689 0
      vertex 0.989426 -3.09016 1
      vertex 0.989426 -3.09016 0
    endloop
  endfacet
  facet normal 0 0 0
    outer loop
      vertex 0.814163 -2.48689 0
      vertex 0.814163 -2.48689 1
      vertex 0.989426 -3.09016 1
    endloop
  endfacet
  facet normal 0 0 0
    outer loop
      vertex 0.677124 -1.87381 0
      vertex 0.814163 -2.48689 1
      vertex 0.814163 -2.48689 0
    endloop
  endfacet
  facet normal 0 0 0
    outer loop
      vertex 0.677124 -1.87381 0
      vertex 0.677124 -1.87381 1
      vertex 0.814163 -2.48689 1
    endloop
  endfacet
  facet normal 0 0 0
    outer loop
      vertex 0.578842 -1.25333 0
      vertex 0.677124 -1.87381 1
      vertex 0.677124 -1.87381 0
    endloop
  endfacet
  facet normal 0 0 0
    outer loop
      vertex 0.578842 -1.25333 0
      vertex 0.578842 -1.25333 1
      vertex 0.677124 -1.87381 1
    endloop
  endfacet
  facet normal 0 0 0
    outer loop
      vertex 0.51973 -0.627899 0
      vertex 0.578842 -1.25333 1
      vertex 0.578842 -1.25333 0
    endloop
  endfacet
  facet normal 0 0 0
    outer loop
      vertex 0.51973 -0.627899 0
      vertex 0.51973 -0.627899 1
      vertex 0.578842 -1.25333 1
    endloop
  endfacet
  facet normal 0 0 0
    outer loop
      vertex 0.503769 -0.119995 0
      vertex 0.51973 -0.627899 1
      vertex 0.51973 -0.627899 0
    endloop
  endfacet
  facet normal 0 0 0
    outer loop
      vertex 0.503769 -0.119995 0
      vertex 0.503769 -0.119995 1
      vertex 0.51973 -0.627899 1
    endloop
  endfacet
  facet normal 0 0 0
    outer loop
      vertex 0.714371 -0.163605 0
      vertex 0.503769 -0.119995 1
      vertex 0.503769 -0.119995 0
    endloop
  endfacet
  facet normal 0 0 0
    outer loop
      vertex 0.714371 -0.163605 0
      vertex 0.714371 -0.163605 1
      vertex 0.503769 -0.119995 1
    endloop
  endfacet
  facet normal 0 0 0
    outer loop
      vertex 1.02383 -0.217621 0
      vertex 0.714371 -0.163605 1
      vertex 0.714371 -0.163605 0
    endloop
  endfacet
  facet normal 0 0 0
    outer loop
      vertex 1.02383 -0.217621 0
      vertex 1.02383 -0.217621 1
      vertex 0.714371 -0.163605 1
    endloop
  endfacet
  facet normal 0 0 0
    outer loop
      vertex 1.33485 -0.261887 0
      vertex 1.02383 -0.217621 1
      vertex 1.02383 -0.217621 0
    endloop
  endfacet
  facet normal 0 0 0
    outer loop
      vertex 1.33485 -0.261887 0
      vertex 1.33485 -0.261887 1
      vertex 1.02383 -0.217621 1
    endloop
  endfacet
  facet normal 0 0 0
    outer loop
      vertex 1.59055 -0.290115 0
      vertex 1.33485 -0.261887 1
      vertex 1.33485 -0.261887 0
    endloop
  endfacet
  facet normal 0 0 0
    outer loop
      vertex 1.59055 -0.290115 0
      vertex 1.59055 -0.290115 1
      vertex 1.33485 -0.261887 1
    endloop
  endfacet
  facet normal 0 0 0
    outer loop
      vertex 1.49217 -0.203384 0
      vertex 1.59055 -0.290115 1
      vertex 1.59055 -0.290115 0
    endloop
  endfacet
  facet normal 0 0 0
    outer loop
      vertex 1.49217 -0.203384 0
      vertex 1.49217 -0.203384 1
      vertex 1.59055 -0.290115 1
    endloop
  endfacet
  facet normal 0 0 0
    outer loop
      vertex 1.27007 0.0187225 0
      vertex 1.49217 -0.203384 1
      vertex 1.49217 -0.203384 0
    endloop
  endfacet
  facet normal 0 0 0
    outer loop
      vertex 1.27007 0.0187225 0
      vertex 1.27007 0.0187225 1
      vertex 1.49217 -0.203384 1
    endloop
  endfacet
  facet normal 0 0 0
    outer loop
      vertex 1.06233 0.254333 0
      vertex 1.27007 0.0187225 1
      vertex 1.27007 0.0187225 0
    endloop
  endfacet
  facet normal 0 0 0
    outer loop
      vertex 1.06233 0.254333 0
      vertex 1.06233 0.254333 1
      vertex 1.27007 0.0187225 1
    endloop
  endfacet
  facet normal 0 0 0
    outer loop
      vertex 0.869827 0.502518 0
      vertex 1.06233 0.254333 1
      vertex 1.06233 0.254333 0
    endloop
  endfacet
  facet normal 0 0 0
    outer loop
      vertex 0.869827 0.502518 0
      vertex 0.869827 0.502518 1
      vertex 1.06233 0.254333 1
    endloop
  endfacet
  facet normal 0 0 0
    outer loop
      vertex 0.693268 0.762314 0
      vertex 0.869827 0.502518 1
      vertex 0.869827 0.502518 0
    endloop
  endfacet
  facet normal 0 0 0
    outer loop
      vertex 0.693268 0.762314 0
      vertex 0.693268 0.762314 1
      vertex 0.869827 0.502518 1
    endloop
  endfacet
  facet normal 0 0 0
    outer loop
      vertex 0.533371 1.03268 0
      vertex 0.693268 0.762314 1
      vertex 0.693268 0.762314 0
    endloop
  endfacet
  facet normal 0 0 0
    outer loop
      vertex 0.533371 1.03268 0
      vertex 0.533371 1.03268 1
      vertex 0.693268 0.762314 1
    endloop
  endfacet
  facet normal 0 0 0
    outer loop
      vertex 0.390762 1.31256 0
      vertex 0.533371 1.03268 1
      vertex 0.533371 1.03268 0
    endloop
  endfacet
  facet normal 0 0 0
    outer loop
      vertex 0.390762 1.31256 0
      vertex 0.390762 1.31256 1
      vertex 0.533371 1.03268 1
    endloop
  endfacet
  facet normal 0 0 0
    outer loop
      vertex 0.266022 1.60083 0
      vertex 0.390762 1.31256 1
      vertex 0.390762 1.31256 0
    endloop
  endfacet
  facet normal 0 0 0
    outer loop
      vertex 0.266022 1.60083 0
      vertex 0.266022 1.60083 1
      vertex 0.390762 1.31256 1
    endloop
  endfacet
  facet normal 0 0 0
    outer loop
      vertex 0.159622 1.89636 0
      vertex 0.266022 1.60083 1
      vertex 0.266022 1.60083 0
    endloop
  endfacet
  facet normal 0 0 0
    outer loop
      vertex 0.159622 1.89636 0
      vertex 0.159622 1.89636 1
      vertex 0.266022 1.60083 1
    endloop
  endfacet
  facet normal 0 0 0
    outer loop
      vertex 0.071991 2.198 0
      vertex 0.159622 1.89636 1
      vertex 0.159622 1.89636 0
    endloop
  endfacet
  facet normal 0 0 0
    outer loop
      vertex 0.071991 2.198 0
      vertex 0.071991 2.198 1
      vertex 0.159622 1.89636 1
    endloop
  endfacet
  facet normal 0 0 0
    outer loop
      vertex 0.00346375 2.50455 0
      vertex 0.071991 2.198 1
      vertex 0.071991 2.198 0
    endloop
  endfacet
  facet normal 0 0 0
    outer loop
      vertex 0.00346375 2.50455 0
      vertex 0.00346375 2.50455 1
      vertex 0.071991 2.198 1
    endloop
  endfacet
  facet normal 0 0 0
    outer loop
      vertex 0.000549316 2.52295 0
      vertex 0.00346375 2.50455 1
      vertex 0.00346375 2.50455 0
    endloop
  endfacet
  facet normal 0 0 0
    outer loop
      vertex 0.000549316 2.52295 0
      vertex 0.000549316 2.52295 1
      vertex 0.00346375 2.50455 1
    endloop
  endfacet
  facet normal 0 0 0
    outer loop
      vertex -0.000549316 2.52295 0
      vertex 0.000549316 2.52295 1
      vertex 0.000549316 2.52295 0
    endloop
  endfacet
  facet normal 0 0 0
    outer loop
      vertex -0.000549316 2.52295 0
      vertex -0.000549316 2.52295 1
      vertex 0.000549316 2.52295 1
    endloop
  endfacet
  facet normal 0 0 0
    outer loop
      vertex -0.00346375 2.50455 0
      vertex -0.000549316 2.52295 1
      vertex -0.000549316 2.52295 0
    endloop
  endfacet
  facet normal 0 0 0
    outer loop
      vertex -0.00346375 2.50455 0
      vertex -0.00346375 2.50455 1
      vertex -0.000549316 2.52295 1
    endloop
  endfacet
  facet normal 0 0 0
    outer loop
      vertex -0.071991 2.198 0
      vertex -0.00346375 2.50455 1
      vertex -0.00346375 2.50455 0
    endloop
  endfacet
  facet normal 0 0 0
    outer loop
      vertex -0.071991 2.198 0
      vertex -0.071991 2.198 1
      vertex -0.00346375 2.50455 1
    endloop
  endfacet
  facet normal 0 0 0
    outer loop
      vertex -0.159622 1.89636 0
      vertex -0.071991 2.198 1
      vertex -0.071991 2.198 0
    endloop
  endfacet
  facet normal 0 0 0
    outer loop
      vertex -0.159622 1.89636 0
      vertex -0.159622 1.89636 1
      vertex -0.071991 2.198 1
    endloop
  endfacet
  facet normal 0 0 0
    outer loop
      vertex -0.266022 1.60083 0
      vertex -0.159622 1.89636 1
      vertex -0.159622 1.89636 0
    endloop
  endfacet
  facet normal 0 0 0
    outer loop
      vertex -0.266022 1.60083 0
      vertex -0.266022 1.60083 1
      vertex -0.159622 1.89636 1
    endloop
  endfacet
  facet normal 0 0 0
    outer loop
      vertex -0.390762 1.31256 0
      vertex -0.266022 1.60083 1
      vertex -0.266022 1.60083 0
    endloop
  endfacet
  facet normal 0 0 0
    outer loop
      vertex -0.390762 1.31256 0
      vertex -0.390762 1.31256 1
      vertex -0.266022 1.60083 1
    endloop
  endfacet
  facet normal 0 0 0
    outer loop
      vertex -0.533371 1.03268 0
      vertex -0.390762 1.31256 1
      vertex -0.390762 1.31256 0
    endloop
  endfacet
  facet normal 0 0 0
    outer loop
      vertex -0.533371 1.03268 0
      vertex -0.533371 1.03268 1
      vertex -0.390762 1.31256 1
    endloop
  endfacet
  facet normal 0 0 0
    outer loop
      vertex -0.693268 0.762314 0
      vertex -0.533371 1.03268 1
      vertex -0.533371 1.03268 0
    endloop
  endfacet
  facet normal 0 0 0
    outer loop
      vertex -0.693268 0.762314 0
      vertex -0.693268 0.762314 1
      vertex -0.533371 1.03268 1
    endloop
  endfacet
  facet normal 0 0 0
    outer loop
      vertex -0.869827 0.502518 0
      vertex -0.693268 0.762314 1
      vertex -0.693268 0.762314 0
    endloop
  endfacet
  facet normal 0 0 0
    outer loop
      vertex -0.869827 0.502518 0
      vertex -0.869827 0.502518 1
      vertex -0.693268 0.762314 1
    endloop
  endfacet
  facet normal 0 0 0
    outer loop
      vertex -1.06233 0.254333 0
      vertex -0.869827 0.502518 1
      vertex -0.869827 0.502518 0
    endloop
  endfacet
  facet normal 0 0 0
    outer loop
      vertex -1.06233 0.254333 0
      vertex -1.06233 0.254333 1
      vertex -0.869827 0.502518 1
    endloop
  endfacet
  facet normal 0 0 0
    outer loop
      vertex -1.27007 0.0187225 0
      vertex -1.06233 0.254333 1
      vertex -1.06233 0.254333 0
    endloop
  endfacet
  facet normal 0 0 0
    outer loop
      vertex -1.27007 0.0187225 0
      vertex -1.27007 0.0187225 1
      vertex -1.06233 0.254333 1
    endloop
  endfacet
  facet normal 0 0 0
    outer loop
      vertex -1.49217 -0.203384 0
      vertex -1.27007 0.0187225 1
      vertex -1.27007 0.0187225 0
    endloop
  endfacet
  facet normal 0 0 0
    outer loop
      vertex -1.49217 -0.203384 0
      vertex -1.49217 -0.203384 1
      vertex -1.27007 0.0187225 1
    endloop
  endfacet
  facet normal 0 0 0
    outer loop
      vertex -1.59055 -0.290115 0
      vertex -1.49217 -0.203384 1
      vertex -1.49217 -0.203384 0
    endloop
  endfacet
  facet normal 0 0 0
    outer loop
      vertex -1.59055 -0.290115 0
      vertex -1.59055 -0.290115 1
      vertex -1.49217 -0.203384 1
    endloop
  endfacet
  facet normal 0 0 0
    outer loop
      vertex -1.33485 -0.261887 0
      vertex -1.59055 -0.290115 1
      vertex -1.59055 -0.290115 0
    endloop
  endfacet
  facet normal 0 0 0
    outer loop
      vertex -1.33485 -0.261887 0
      vertex -1.33485 -0.261887 1
      vertex -1.59055 -0.290115 1
    endloop
  endfacet
  facet normal 0 0 0
    outer loop
      vertex -1.02383 -0.217621 0
      vertex -1.33485 -0.261887 1
      vertex -1.33485 -0.261887 0
    endloop
  endfacet
  facet normal 0 0 0
    outer loop
      vertex -1.02383 -0.217621 0
      vertex -1.02383 -0.217621 1
      vertex -1.33485 -0.261887 1
    endloop
  endfacet
  facet normal 0 0 0
    outer loop
      vertex -0.714371 -0.163605 0
      vertex -1.02383 -0.217621 1
      vertex -1.02383 -0.217621 0
    endloop
  endfacet
  facet normal 0 0 0
    outer loop
      vertex -0.714371 -0.163605 0
      vertex -0.714371 -0.163605 1
      vertex -1.02383 -0.217621 1
    endloop
  endfacet
  facet normal 0 0 0
    outer loop
      vertex -0.503769 -0.119995 0
      vertex -0.714371 -0.163605 1
      vertex -0.714371 -0.163605 0
    endloop
  endfacet
  facet normal 0 0 0
    outer loop
      vertex -0.503769 -0.119995 0
      vertex -0.503769 -0.119995 1
      vertex -0.714371 -0.163605 1
    endloop
  endfacet
  facet normal 0 0 0
    outer loop
      vertex -0.51973 -0.627899 0
      vertex -0.503769 -0.119995 1
      vertex -0.503769 -0.119995 0
    endloop
  endfacet
  facet normal 0 0 0
    outer loop
      vertex -0.51973 -0.627899 0
      vertex -0.51973 -0.627899 1
      vertex -0.503769 -0.119995 1
    endloop
  endfacet
  facet normal 0 0 0
    outer loop
      vertex -0.578842 -1.25333 0
      vertex -0.51973 -0.627899 1
      vertex -0.51973 -0.627899 0
    endloop
  endfacet
  facet normal 0 0 0
    outer loop
      vertex -0.578842 -1.25333 0
      vertex -0.578842 -1.25333 1
      vertex -0.51973 -0.627899 1
    endloop
  endfacet
  facet normal 0 0 0
    outer loop
      vertex -0.677124 -1.87381 0
      vertex -0.578842 -1.25333 1
      vertex -0.578842 -1.25333 0
    endloop
  endfacet
  facet normal 0 0 0
    outer loop
      vertex -0.677124 -1.87381 0
      vertex -0.677124 -1.87381 1
      vertex -0.578842 -1.25333 1
    endloop
  endfacet
  facet normal 0 0 0
    outer loop
      vertex -0.814163 -2.48689 0
      vertex -0.677124 -1.87381 1
      vertex -0.677124 -1.87381 0
    endloop
  endfacet
  facet normal 0 0 0
    outer loop
      vertex -0.814163 -2.48689 0
      vertex -0.814163 -2.48689 1
      vertex -0.677124 -1.87381 1
    endloop
  endfacet
  facet normal 0 0 0
    outer loop
      vertex -0.989426 -3.09016 0
      vertex -0.814163 -2.48689 1
      vertex -0.814163 -2.48689 0
    endloop
  endfacet
  facet normal 0 0 0
    outer loop
      vertex -0.989426 -3.09016 0
      vertex -0.989426 -3.09016 1
      vertex -0.814163 -2.48689 1
    endloop
  endfacet
  facet normal 0 0 0
    outer loop
      vertex -1.19742 -3.66789 0
      vertex -0.989426 -3.09016 1
      vertex -0.989426 -3.09016 0
    endloop
  endfacet
  facet normal 0 0 0
    outer loop
      vertex -1.19742 -3.66789 0
      vertex -1.19742 -3.66789 1
      vertex -0.989426 -3.09016 1
    endloop
  endfacet
  facet normal 0 0 0
    outer loop
      vertex -1.01309 -3.62364 0
      vertex -1.19742 -3.66789 1
      vertex -1.19742 -3.66789 0
    endloop
  endfacet
  facet normal 0 0 0
    outer loop
      vertex -1.01309 -3.62364 0
      vertex -1.01309 -3.62364 1
      vertex -1.19742 -3.66789 1
    endloop
  endfacet
  facet normal 0 0 0
    outer loop
      vertex -0.710083 -3.54076 0
      vertex -1.01309 -3.62364 1
      vertex -1.01309 -3.62364 0
    endloop
  endfacet
  facet normal 0 0 0
    outer loop
      vertex -0.710083 -3.54076 0
      vertex -0.710083 -3.54076 1
      vertex -1.01309 -3.62364 1
    endloop
  endfacet
  facet normal 0 0 0
    outer loop
      vertex -0.409821 -3.44838 0
      vertex -0.710083 -3.54076 1
      vertex -0.710083 -3.54076 0
    endloop
  endfacet
  facet normal 0 0 0
    outer loop
      vertex -0.409821 -3.44838 0
      vertex -0.409821 -3.44838 1
      vertex -0.710083 -3.54076 1
    endloop
  endfacet
  facet normal 0 0 0
    outer loop
      vertex -0.11261 -3.34662 0
      vertex -0.409821 -3.44838 1
      vertex -0.409821 -3.44838 0
    endloop
  endfacet
  facet normal 0 0 0
    outer loop
      vertex -0.11261 -3.34662 0
      vertex -0.11261 -3.34662 1
      vertex -0.409821 -3.44838 1
    endloop
  endfacet
  facet normal 0 0 0
    outer loop
      vertex 0 -3.30406 0
      vertex -0.11261 -3.34662 1
      vertex -0.11261 -3.34662 0
    endloop
  endfacet
  facet normal 0 0 0
    outer loop
      vertex 0 -3.30406 0
      vertex 0 -3.30406 1
      vertex -0.11261 -3.34662 1
    endloop
  endfacet
  facet normal 0 0 0
    outer loop
      vertex 0.11261 -3.34662 0
      vertex 0 -3.30406 1
      vertex 0 -3.30406 0
    endloop
  endfacet
  facet normal 0 0 0
    outer loop
      vertex 0.11261 -3.34662 0
      vertex 0.11261 -3.34662 1
      vertex 0 -3.30406 1
    endloop
  endfacet
  facet normal 0 0 0
    outer loop
      vertex 0.409821 -3.44838 0
      vertex 0.11261 -3.34662 1
      vertex 0.11261 -3.34662 0
    endloop
  endfacet
  facet normal 0 0 0
    outer loop
      vertex 0.409821 -3.44838 0
      vertex 0.409821 -3.44838 1
      vertex 0.11261 -3.34662 1
    endloop
  endfacet
  facet normal 0 0 0
    outer loop
      vertex 0.710083 -3.54076 0
      vertex 0.409821 -3.44838 1
      vertex 0.409821 -3.44838 0
    endloop
  endfacet
  facet normal 0 0 0
    outer loop
      vertex 0.710083 -3.54076 0
      vertex 0.710083 -3.54076 1
      vertex 0.409821 -3.44838 1
    endloop
  endfacet
  facet normal 0 0 0
    outer loop
      vertex 1.01309 -3.62364 0
      vertex 0.710083 -3.54076 1
      vertex 0.710083 -3.54076 0
    endloop
  endfacet
  facet normal 0 0 0
    outer loop
      vertex 1.01309 -3.62364 0
      vertex 1.01309 -3.62364 1
      vertex 0.710083 -3.54076 1
    endloop
  endfacet
  facet normal 0 0 0
    outer loop
      vertex 1.19742 -3.66789 0
      vertex 1.01309 -3.62364 1
      vertex 1.01309 -3.62364 0
    endloop
  endfacet
  facet normal 0 0 0
    outer loop
      vertex 1.19742 -3.66789 0
      vertex 1.19742 -3.66789 1
      vertex 1.01309 -3.62364 1
    endloop
  endfacet
  facet normal 0 0 0
    outer loop
      vertex 0.989426 -3.09016 0
      vertex 1.19742 -3.66789 1
      vertex 1.19742 -3.66789 0
    endloop
  endfacet
  facet normal 0 0 0
    outer loop
      vertex 0.989426 -3.09016 0
      vertex 0.989426 -3.09016 1
      vertex 1.19742 -3.66789 1
    endloop
  endfacet
  facet normal 0 0 0
    outer loop
      vertex 0 0.00114441 0
      vertex 0 0.00114441 1
      vertex -0.00418091 0 0
    endloop
  endfacet
  facet normal 0 0 0
    outer loop
      vertex -0.00418091 0 1
      vertex -0.00418091 0 0
      vertex 0 0.00114441 1
    endloop
  endfacet
  facet normal 0 0 0
    outer loop
      vertex 0.00418091 0 0
      vertex 0.00418091 0 1
      vertex 0 0.00114441 0
    endloop
  endfacet
  facet normal 0 0 0
    outer loop
      vertex 0 0.00114441 1
      vertex 0 0.00114441 0
      vertex 0.00418091 0 1
    endloop
  endfacet
  facet normal 0 0 0
    outer loop
      vertex -0.00418091 0 0
      vertex -0.00418091 0 1
      vertex 0.00418091 0 0
    endloop
  endfacet
  facet normal 0 0 0
    outer loop
      vertex 0.00418091 0 1
      vertex 0.00418091 0 0
      vertex -0.00418091 0 1
    endloop
  endfacet
endsolid OpenSCAD_Model
