  0
SECTION
  2
BLOCKS
  0
ENDSEC
  0
SECTION
  2
ENTITIES
  0
LINE
  8
0
 10
1.30223
 20
-3.68124
 11
1.08943
 21
-3.09016
  0
LINE
  8
0
 10
1.08943
 20
-3.09016
 11
0.914154
 21
-2.48689
  0
LINE
  8
0
 10
0.914154
 20
-2.48689
 11
0.777115
 21
-1.87381
  0
LINE
  8
0
 10
0.777115
 20
-1.87381
 11
0.678848
 21
-1.25333
  0
LINE
  8
0
 10
0.678848
 20
-1.25333
 11
0.61972
 21
-0.627899
  0
LINE
  8
0
 10
0.61972
 20
-0.627899
 11
0.604416
 21
-0.140839
  0
LINE
  8
0
 10
0.604416
 20
-0.140839
 11
0.714371
 21
-0.163605
  0
LINE
  8
0
 10
0.714371
 20
-0.163605
 11
1.02383
 21
-0.217621
  0
LINE
  8
0
 10
1.02383
 20
-0.217621
 11
1.33485
 21
-0.261887
  0
LINE
  8
0
 10
1.33485
 20
-0.261887
 11
1.64709
 21
-0.296356
  0
LINE
  8
0
 10
1.64709
 20
-0.296356
 11
1.78383
 21
-0.307114
  0
LINE
  8
0
 10
1.78383
 20
-0.307114
 11
1.18336
 21
1.08046
  0
LINE
  8
0
 10
1.18336
 20
1.08046
 11
0.0367584
 21
4.26529
  0
LINE
  8
0
 10
0.0367584
 20
4.26529
 11
-0.0367584
 21
4.26529
  0
LINE
  8
0
 10
-0.0367584
 20
4.26529
 11
-1.18336
 21
1.08046
  0
LINE
  8
0
 10
-1.18336
 20
1.08046
 11
-1.78383
 21
-0.307114
  0
LINE
  8
0
 10
-1.78383
 20
-0.307114
 11
-1.64709
 21
-0.296356
  0
LINE
  8
0
 10
-1.64709
 20
-0.296356
 11
-1.33485
 21
-0.261887
  0
LINE
  8
0
 10
-1.33485
 20
-0.261887
 11
-1.02383
 21
-0.217621
  0
LINE
  8
0
 10
-1.02383
 20
-0.217621
 11
-0.714371
 21
-0.163605
  0
LINE
  8
0
 10
-0.714371
 20
-0.163605
 11
-0.604416
 21
-0.140839
  0
LINE
  8
0
 10
-0.604416
 20
-0.140839
 11
-0.61972
 21
-0.627899
  0
LINE
  8
0
 10
-0.61972
 20
-0.627899
 11
-0.678848
 21
-1.25333
  0
LINE
  8
0
 10
-0.678848
 20
-1.25333
 11
-0.777115
 21
-1.87381
  0
LINE
  8
0
 10
-0.777115
 20
-1.87381
 11
-0.914154
 21
-2.48689
  0
LINE
  8
0
 10
-0.914154
 20
-2.48689
 11
-1.08943
 21
-3.09016
  0
LINE
  8
0
 10
-1.08943
 20
-3.09016
 11
-1.30223
 21
-3.68124
  0
LINE
  8
0
 10
-1.30223
 20
-3.68124
 11
-1.53607
 21
-4.2216
  0
LINE
  8
0
 10
-1.53607
 20
-4.2216
 11
-1.37617
 21
-4.1937
  0
LINE
  8
0
 10
-1.37617
 20
-4.1937
 11
-1.06856
 21
-4.12999
  0
LINE
  8
0
 10
-1.06856
 20
-4.12999
 11
-0.763092
 21
-4.05666
  0
LINE
  8
0
 10
-0.763092
 20
-4.05666
 11
-0.460083
 21
-3.97377
  0
LINE
  8
0
 10
-0.460083
 20
-3.97377
 11
-0.159821
 21
-3.88139
  0
LINE
  8
0
 10
-0.159821
 20
-3.88139
 11
0
 21
-3.82668
  0
LINE
  8
0
 10
0
 20
-3.82668
 11
0.159821
 21
-3.88139
  0
LINE
  8
0
 10
0.159821
 20
-3.88139
 11
0.460083
 21
-3.97377
  0
LINE
  8
0
 10
0.460083
 20
-3.97377
 11
0.763092
 21
-4.05666
  0
LINE
  8
0
 10
0.763092
 20
-4.05666
 11
1.06856
 21
-4.12999
  0
LINE
  8
0
 10
1.06856
 20
-4.12999
 11
1.37617
 21
-4.1937
  0
LINE
  8
0
 10
1.37617
 20
-4.1937
 11
1.53607
 21
-4.2216
  0
LINE
  8
0
 10
1.53607
 20
-4.2216
 11
1.30223
 21
-3.68124
  0
LINE
  8
0
 10
-0.00418091
 20
0
 11
0
 21
0.00114441
  0
LINE
  8
0
 10
0
 20
0.00114441
 11
0.00418091
 21
0
  0
LINE
  8
0
 10
0.00418091
 20
0
 11
-0.00418091
 21
0
  0
ENDSEC
  0
SECTION
  2
OBJECTS
  0
DICTIONARY
  0
ENDSEC
  0
EOF
