  0
SECTION
  2
BLOCKS
  0
ENDSEC
  0
SECTION
  2
ENTITIES
  0
LINE
  8
0
 10
2.20222
 20
-3.68124
 11
1.98943
 21
-3.09016
  0
LINE
  8
0
 10
1.98943
 20
-3.09016
 11
1.81416
 21
-2.48689
  0
LINE
  8
0
 10
1.81416
 20
-2.48689
 11
1.67712
 21
-1.87381
  0
LINE
  8
0
 10
1.67712
 20
-1.87381
 11
1.57884
 21
-1.25333
  0
LINE
  8
0
 10
1.57884
 20
-1.25333
 11
1.51973
 21
-0.627899
  0
LINE
  8
0
 10
1.51973
 20
-0.627899
 11
1.50883
 21
-0.281097
  0
LINE
  8
0
 10
1.50883
 20
-0.281097
 11
1.64709
 21
-0.296356
  0
LINE
  8
0
 10
1.64709
 20
-0.296356
 11
1.96028
 21
-0.320999
  0
LINE
  8
0
 10
1.96028
 20
-0.320999
 11
2.27408
 21
-0.3358
  0
LINE
  8
0
 10
2.27408
 20
-0.3358
 11
2.58818
 21
-0.340729
  0
LINE
  8
0
 10
2.58818
 20
-0.340729
 11
2.9023
 21
-0.3358
  0
LINE
  8
0
 10
2.9023
 20
-0.3358
 11
3.21609
 21
-0.320999
  0
LINE
  8
0
 10
3.21609
 20
-0.320999
 11
3.34988
 21
-0.310471
  0
LINE
  8
0
 10
3.34988
 20
-0.310471
 11
2.95816
 21
-0.0442505
  0
LINE
  8
0
 10
2.95816
 20
-0.0442505
 11
2.56105
 21
0.263763
  0
LINE
  8
0
 10
2.56105
 20
0.263763
 11
2.18407
 21
0.596115
  0
LINE
  8
0
 10
2.18407
 20
0.596115
 11
1.82869
 21
0.951492
  0
LINE
  8
0
 10
1.82869
 20
0.951492
 11
1.49634
 21
1.32848
  0
LINE
  8
0
 10
1.49634
 20
1.32848
 11
1.18829
 21
1.72559
  0
LINE
  8
0
 10
1.18829
 20
1.72559
 11
0.905807
 21
2.14125
  0
LINE
  8
0
 10
0.905807
 20
2.14125
 11
0.649979
 21
2.57384
  0
LINE
  8
0
 10
0.649979
 20
2.57384
 11
0.421814
 21
3.02164
  0
LINE
  8
0
 10
0.421814
 20
3.02164
 11
0.222229
 21
3.48288
  0
LINE
  8
0
 10
0.222229
 20
3.48288
 11
0.0519867
 21
3.95573
  0
LINE
  8
0
 10
0.0519867
 20
3.95573
 11
0.00372314
 21
4.12187
  0
LINE
  8
0
 10
0.00372314
 20
4.12187
 11
-0.00372314
 21
4.12187
  0
LINE
  8
0
 10
-0.00372314
 20
4.12187
 11
-0.0519867
 21
3.95573
  0
LINE
  8
0
 10
-0.0519867
 20
3.95573
 11
-0.222229
 21
3.48288
  0
LINE
  8
0
 10
-0.222229
 20
3.48288
 11
-0.421814
 21
3.02164
  0
LINE
  8
0
 10
-0.421814
 20
3.02164
 11
-0.649979
 21
2.57384
  0
LINE
  8
0
 10
-0.649979
 20
2.57384
 11
-0.905807
 21
2.14125
  0
LINE
  8
0
 10
-0.905807
 20
2.14125
 11
-1.18829
 21
1.72559
  0
LINE
  8
0
 10
-1.18829
 20
1.72559
 11
-1.49634
 21
1.32848
  0
LINE
  8
0
 10
-1.49634
 20
1.32848
 11
-1.82869
 21
0.951492
  0
LINE
  8
0
 10
-1.82869
 20
0.951492
 11
-2.18407
 21
0.596115
  0
LINE
  8
0
 10
-2.18407
 20
0.596115
 11
-2.56105
 21
0.263763
  0
LINE
  8
0
 10
-2.56105
 20
0.263763
 11
-2.95816
 21
-0.0442505
  0
LINE
  8
0
 10
-2.95816
 20
-0.0442505
 11
-3.34988
 21
-0.310471
  0
LINE
  8
0
 10
-3.34988
 20
-0.310471
 11
-3.21609
 21
-0.320999
  0
LINE
  8
0
 10
-3.21609
 20
-0.320999
 11
-2.9023
 21
-0.3358
  0
LINE
  8
0
 10
-2.9023
 20
-0.3358
 11
-2.58818
 21
-0.340729
  0
LINE
  8
0
 10
-2.58818
 20
-0.340729
 11
-2.27408
 21
-0.3358
  0
LINE
  8
0
 10
-2.27408
 20
-0.3358
 11
-1.96028
 21
-0.320999
  0
LINE
  8
0
 10
-1.96028
 20
-0.320999
 11
-1.64709
 21
-0.296356
  0
LINE
  8
0
 10
-1.64709
 20
-0.296356
 11
-1.50883
 21
-0.281097
  0
LINE
  8
0
 10
-1.50883
 20
-0.281097
 11
-1.51973
 21
-0.627899
  0
LINE
  8
0
 10
-1.51973
 20
-0.627899
 11
-1.57884
 21
-1.25333
  0
LINE
  8
0
 10
-1.57884
 20
-1.25333
 11
-1.67712
 21
-1.87381
  0
LINE
  8
0
 10
-1.67712
 20
-1.87381
 11
-1.81416
 21
-2.48689
  0
LINE
  8
0
 10
-1.81416
 20
-2.48689
 11
-1.98943
 21
-3.09016
  0
LINE
  8
0
 10
-1.98943
 20
-3.09016
 11
-2.20222
 21
-3.68124
  0
LINE
  8
0
 10
-2.20222
 20
-3.68124
 11
-2.28076
 21
-3.86273
  0
LINE
  8
0
 10
-2.28076
 20
-3.86273
 11
-1.93565
 21
-3.8147
  0
LINE
  8
0
 10
-1.93565
 20
-3.8147
 11
-1.62617
 21
-3.76068
  0
LINE
  8
0
 10
-1.62617
 20
-3.76068
 11
-1.31856
 21
-3.69698
  0
LINE
  8
0
 10
-1.31856
 20
-3.69698
 11
-1.01309
 21
-3.62364
  0
LINE
  8
0
 10
-1.01309
 20
-3.62364
 11
-0.710083
 21
-3.54076
  0
LINE
  8
0
 10
-0.710083
 20
-3.54076
 11
-0.409821
 21
-3.44838
  0
LINE
  8
0
 10
-0.409821
 20
-3.44838
 11
-0.11261
 21
-3.34662
  0
LINE
  8
0
 10
-0.11261
 20
-3.34662
 11
0
 21
-3.30406
  0
LINE
  8
0
 10
0
 20
-3.30406
 11
0.11261
 21
-3.34662
  0
LINE
  8
0
 10
0.11261
 20
-3.34662
 11
0.409821
 21
-3.44838
  0
LINE
  8
0
 10
0.409821
 20
-3.44838
 11
0.710083
 21
-3.54076
  0
LINE
  8
0
 10
0.710083
 20
-3.54076
 11
1.01309
 21
-3.62364
  0
LINE
  8
0
 10
1.01309
 20
-3.62364
 11
1.31856
 21
-3.69698
  0
LINE
  8
0
 10
1.31856
 20
-3.69698
 11
1.62617
 21
-3.76068
  0
LINE
  8
0
 10
1.62617
 20
-3.76068
 11
1.93565
 21
-3.8147
  0
LINE
  8
0
 10
1.93565
 20
-3.8147
 11
2.28076
 21
-3.86273
  0
LINE
  8
0
 10
2.28076
 20
-3.86273
 11
2.20222
 21
-3.68124
  0
LINE
  8
0
 10
-0.00418091
 20
0
 11
0
 21
0.00114441
  0
LINE
  8
0
 10
0
 20
0.00114441
 11
0.00418091
 21
0
  0
LINE
  8
0
 10
0.00418091
 20
0
 11
-0.00418091
 21
0
  0
ENDSEC
  0
SECTION
  2
OBJECTS
  0
DICTIONARY
  0
ENDSEC
  0
EOF
