  0
SECTION
  2
BLOCKS
  0
ENDSEC
  0
SECTION
  2
ENTITIES
  0
LINE
  8
0
 10
1.30223
 20
-3.68124
 11
1.08943
 21
-3.09016
  0
LINE
  8
0
 10
1.08943
 20
-3.09016
 11
0.914154
 21
-2.48689
  0
LINE
  8
0
 10
0.914154
 20
-2.48689
 11
0.777115
 21
-1.87381
  0
LINE
  8
0
 10
0.777115
 20
-1.87381
 11
0.678848
 21
-1.25333
  0
LINE
  8
0
 10
0.678848
 20
-1.25333
 11
0.61972
 21
-0.627899
  0
LINE
  8
0
 10
0.61972
 20
-0.627899
 11
0.604416
 21
-0.140839
  0
LINE
  8
0
 10
0.604416
 20
-0.140839
 11
0.714371
 21
-0.163605
  0
LINE
  8
0
 10
0.714371
 20
-0.163605
 11
1.02383
 21
-0.217621
  0
LINE
  8
0
 10
1.02383
 20
-0.217621
 11
1.33485
 21
-0.261887
  0
LINE
  8
0
 10
1.33485
 20
-0.261887
 11
1.59055
 21
-0.290115
  0
LINE
  8
0
 10
1.59055
 20
-0.290115
 11
1.49217
 21
-0.203384
  0
LINE
  8
0
 10
1.49217
 20
-0.203384
 11
1.27007
 21
0.0187225
  0
LINE
  8
0
 10
1.27007
 20
0.0187225
 11
1.06233
 21
0.254333
  0
LINE
  8
0
 10
1.06233
 20
0.254333
 11
0.869827
 21
0.502518
  0
LINE
  8
0
 10
0.869827
 20
0.502518
 11
0.693268
 21
0.762314
  0
LINE
  8
0
 10
0.693268
 20
0.762314
 11
0.533371
 21
1.03268
  0
LINE
  8
0
 10
0.533371
 20
1.03268
 11
0.390762
 21
1.31256
  0
LINE
  8
0
 10
0.390762
 20
1.31256
 11
0.266022
 21
1.60083
  0
LINE
  8
0
 10
0.266022
 20
1.60083
 11
0.159622
 21
1.89636
  0
LINE
  8
0
 10
0.159622
 20
1.89636
 11
0.071991
 21
2.198
  0
LINE
  8
0
 10
0.071991
 20
2.198
 11
0.00346375
 21
2.50455
  0
LINE
  8
0
 10
0.00346375
 20
2.50455
 11
0.000549316
 21
2.52295
  0
LINE
  8
0
 10
0.000549316
 20
2.52295
 11
-0.000549316
 21
2.52295
  0
LINE
  8
0
 10
-0.000549316
 20
2.52295
 11
-0.00346375
 21
2.50455
  0
LINE
  8
0
 10
-0.00346375
 20
2.50455
 11
-0.071991
 21
2.198
  0
LINE
  8
0
 10
-0.071991
 20
2.198
 11
-0.159622
 21
1.89636
  0
LINE
  8
0
 10
-0.159622
 20
1.89636
 11
-0.266022
 21
1.60083
  0
LINE
  8
0
 10
-0.266022
 20
1.60083
 11
-0.390762
 21
1.31256
  0
LINE
  8
0
 10
-0.390762
 20
1.31256
 11
-0.533371
 21
1.03268
  0
LINE
  8
0
 10
-0.533371
 20
1.03268
 11
-0.693268
 21
0.762314
  0
LINE
  8
0
 10
-0.693268
 20
0.762314
 11
-0.869827
 21
0.502518
  0
LINE
  8
0
 10
-0.869827
 20
0.502518
 11
-1.06233
 21
0.254333
  0
LINE
  8
0
 10
-1.06233
 20
0.254333
 11
-1.27007
 21
0.0187225
  0
LINE
  8
0
 10
-1.27007
 20
0.0187225
 11
-1.49217
 21
-0.203384
  0
LINE
  8
0
 10
-1.49217
 20
-0.203384
 11
-1.59055
 21
-0.290115
  0
LINE
  8
0
 10
-1.59055
 20
-0.290115
 11
-1.33485
 21
-0.261887
  0
LINE
  8
0
 10
-1.33485
 20
-0.261887
 11
-1.02383
 21
-0.217621
  0
LINE
  8
0
 10
-1.02383
 20
-0.217621
 11
-0.714371
 21
-0.163605
  0
LINE
  8
0
 10
-0.714371
 20
-0.163605
 11
-0.604416
 21
-0.140839
  0
LINE
  8
0
 10
-0.604416
 20
-0.140839
 11
-0.61972
 21
-0.627899
  0
LINE
  8
0
 10
-0.61972
 20
-0.627899
 11
-0.678848
 21
-1.25333
  0
LINE
  8
0
 10
-0.678848
 20
-1.25333
 11
-0.777115
 21
-1.87381
  0
LINE
  8
0
 10
-0.777115
 20
-1.87381
 11
-0.914154
 21
-2.48689
  0
LINE
  8
0
 10
-0.914154
 20
-2.48689
 11
-1.08943
 21
-3.09016
  0
LINE
  8
0
 10
-1.08943
 20
-3.09016
 11
-1.30223
 21
-3.68124
  0
LINE
  8
0
 10
-1.30223
 20
-3.68124
 11
-1.53607
 21
-4.2216
  0
LINE
  8
0
 10
-1.53607
 20
-4.2216
 11
-1.37617
 21
-4.1937
  0
LINE
  8
0
 10
-1.37617
 20
-4.1937
 11
-1.06856
 21
-4.12999
  0
LINE
  8
0
 10
-1.06856
 20
-4.12999
 11
-0.763092
 21
-4.05666
  0
LINE
  8
0
 10
-0.763092
 20
-4.05666
 11
-0.460083
 21
-3.97377
  0
LINE
  8
0
 10
-0.460083
 20
-3.97377
 11
-0.159821
 21
-3.88139
  0
LINE
  8
0
 10
-0.159821
 20
-3.88139
 11
0
 21
-3.82668
  0
LINE
  8
0
 10
0
 20
-3.82668
 11
0.159821
 21
-3.88139
  0
LINE
  8
0
 10
0.159821
 20
-3.88139
 11
0.460083
 21
-3.97377
  0
LINE
  8
0
 10
0.460083
 20
-3.97377
 11
0.763092
 21
-4.05666
  0
LINE
  8
0
 10
0.763092
 20
-4.05666
 11
1.06856
 21
-4.12999
  0
LINE
  8
0
 10
1.06856
 20
-4.12999
 11
1.37617
 21
-4.1937
  0
LINE
  8
0
 10
1.37617
 20
-4.1937
 11
1.53607
 21
-4.2216
  0
LINE
  8
0
 10
1.53607
 20
-4.2216
 11
1.30223
 21
-3.68124
  0
LINE
  8
0
 10
-0.00418091
 20
0
 11
0
 21
0.00114441
  0
LINE
  8
0
 10
0
 20
0.00114441
 11
0.00418091
 21
0
  0
LINE
  8
0
 10
0.00418091
 20
0
 11
-0.00418091
 21
0
  0
ENDSEC
  0
SECTION
  2
OBJECTS
  0
DICTIONARY
  0
ENDSEC
  0
EOF
